<?xml version="1.0" standalone="no"?>
<!DOCTYPE svg PUBLIC "-//W3C//DTD SVG 20010904//EN"
 "http://www.w3.org/TR/2001/REC-SVG-20010904/DTD/svg10.dtd">
<svg version="1.0" xmlns="http://www.w3.org/2000/svg"
 width="1251.000000pt" height="1251.000000pt" viewBox="0 0 1251.000000 1251.000000"
 preserveAspectRatio="xMidYMid meet">
<metadata>
Created by potrace 1.11, written by Peter Selinger 2001-2013
</metadata>
<g transform="translate(0.000000,1251.000000) scale(0.100000,-0.100000)"
fill="#000000" stroke="none">
<path d="M5207 11084 c-1 -2 -63 -5 -138 -7 -74 -1 -140 -6 -147 -11 -7 -4
-12 -2 -12 4 0 6 -5 8 -12 3 -7 -4 -26 -8 -43 -9 -32 -1 -102 -9 -175 -20 -25
-4 -56 -8 -70 -9 -14 -2 -25 -4 -25 -5 0 -1 -11 -3 -25 -5 -14 -3 -34 -7 -45
-9 -11 -2 -25 -5 -32 -5 -14 -1 -31 -17 -58 -56 -11 -16 -31 -40 -45 -54 -14
-15 -43 -50 -65 -79 -21 -28 -43 -52 -49 -52 -5 0 -7 -3 -4 -6 4 -3 -1 -14
-10 -23 -9 -10 -24 -27 -32 -37 -66 -85 -95 -121 -109 -131 -8 -7 -12 -13 -8
-13 7 0 -13 -27 -43 -59 -8 -9 -26 -32 -40 -51 -13 -19 -32 -44 -42 -54 -10
-11 -18 -26 -18 -33 0 -8 -4 -12 -9 -8 -5 3 -12 -3 -15 -13 -4 -10 -14 -27
-24 -38 -9 -10 -44 -55 -77 -99 -33 -44 -65 -86 -72 -93 -7 -7 -13 -17 -13
-21 0 -4 -8 -16 -17 -27 -27 -29 -73 -92 -73 -99 0 -3 -11 -18 -25 -33 -14
-15 -25 -30 -25 -34 0 -5 -8 -17 -17 -27 -32 -35 -44 -51 -38 -51 3 0 -3 -9
-12 -19 -33 -37 -43 -50 -43 -61 0 -5 -5 -10 -12 -10 -6 0 -9 -3 -5 -6 3 -4
-1 -13 -9 -21 -8 -8 -28 -36 -46 -61 -17 -26 -34 -49 -37 -52 -3 -3 -12 -17
-20 -32 -8 -16 -18 -28 -23 -28 -4 0 -8 -7 -8 -15 0 -8 -4 -15 -10 -15 -5 0
-10 -6 -10 -12 -1 -7 -14 -29 -30 -48 -17 -19 -30 -39 -30 -46 0 -6 -9 -19
-20 -29 -11 -10 -20 -24 -20 -31 0 -7 -3 -14 -7 -16 -5 -1 -37 -48 -73 -103
-36 -55 -68 -102 -73 -103 -4 -2 -5 -7 -2 -12 2 -4 -4 -15 -15 -25 -11 -10
-20 -22 -20 -27 0 -5 -17 -35 -37 -66 -21 -32 -43 -66 -50 -77 -6 -11 -32 -53
-57 -93 -25 -40 -46 -77 -46 -82 0 -6 -4 -10 -10 -10 -5 0 -10 -7 -10 -15 0
-8 -5 -15 -11 -15 -5 0 -8 -4 -5 -9 3 -5 -1 -14 -9 -21 -8 -7 -15 -19 -15 -26
0 -8 -4 -14 -9 -14 -5 0 -11 -8 -14 -17 -3 -10 -19 -40 -36 -68 -17 -27 -41
-70 -54 -95 -32 -61 -51 -94 -57 -100 -3 -3 -18 -32 -35 -65 -16 -33 -33 -62
-36 -65 -6 -5 -22 -41 -23 -52 -1 -4 -8 -15 -16 -25 -9 -10 -16 -22 -17 -26
-4 -16 -48 -102 -56 -108 -5 -3 -8 -9 -7 -13 1 -4 -13 -37 -31 -74 -18 -37
-33 -70 -34 -74 0 -4 -7 -16 -15 -26 -15 -19 -22 -37 -23 -59 0 -7 -4 -13 -8
-13 -7 0 -34 -71 -30 -79 2 -2 -3 -7 -10 -12 -7 -4 -14 -13 -15 -21 -8 -35
-30 -88 -36 -88 -5 0 -8 -6 -8 -14 0 -7 -8 -33 -19 -57 -26 -62 -34 -82 -37
-98 -1 -8 -6 -17 -11 -20 -4 -3 -9 -13 -10 -21 -1 -14 -16 -59 -34 -105 -28
-72 -48 -135 -43 -135 4 0 2 -6 -4 -12 -6 -7 -13 -30 -17 -51 -4 -20 -11 -40
-16 -43 -5 -3 -7 -9 -4 -14 3 -5 1 -18 -4 -28 -5 -10 -12 -32 -15 -48 -2 -16
-5 -29 -6 -29 -2 0 -10 -33 -15 -60 -2 -11 -4 -22 -5 -25 -1 -3 -3 -9 -5 -15
-1 -5 -3 -12 -4 -15 -2 -3 -4 -14 -5 -25 -2 -11 -7 -40 -11 -65 -11 -69 -16
-102 -19 -140 -1 -20 -5 -40 -8 -45 -8 -13 -2 -389 6 -435 4 -19 8 -46 10 -60
2 -14 5 -25 6 -25 1 0 4 -13 6 -29 3 -15 16 -57 29 -92 13 -35 22 -64 19 -64
-3 0 2 -7 10 -16 9 -8 16 -24 16 -35 0 -10 5 -19 12 -19 6 0 9 -3 5 -6 -10
-10 41 -54 63 -54 11 0 20 -4 20 -10 0 -5 7 -10 15 -10 14 0 53 -18 65 -30 3
-3 12 -6 20 -8 15 -3 128 -54 162 -72 10 -6 24 -10 32 -10 8 0 16 -3 18 -7 2
-5 39 -23 83 -42 44 -19 112 -49 150 -67 132 -60 185 -84 190 -83 3 0 22 -9
43 -20 45 -25 94 -45 105 -43 4 1 7 -3 7 -8 0 -6 9 -10 20 -10 11 0 20 -5 20
-11 0 -5 5 -7 10 -4 6 3 10 2 10 -3 0 -5 6 -9 13 -9 6 0 40 -14 74 -31 34 -16
64 -28 67 -24 3 3 6 0 6 -6 0 -7 3 -11 8 -10 4 1 22 -6 39 -15 18 -10 34 -17
35 -17 2 1 23 -8 48 -19 25 -11 51 -21 58 -21 6 0 12 -4 12 -10 0 -5 3 -9 8
-8 4 1 21 -5 37 -12 17 -7 32 -14 35 -15 13 -4 66 -30 70 -35 3 -3 14 -7 25
-8 11 -2 27 -10 36 -18 8 -8 20 -14 26 -14 6 0 45 -16 86 -35 41 -19 80 -35
86 -35 6 0 11 -4 11 -8 0 -5 6 -9 13 -9 6 0 45 -16 85 -36 40 -20 73 -36 75
-35 2 1 76 -31 137 -60 19 -9 38 -15 43 -14 4 1 7 -2 7 -7 0 -5 14 -12 30 -16
17 -4 30 -11 30 -15 0 -5 7 -7 15 -4 8 4 15 1 15 -6 0 -7 6 -10 14 -7 8 3 17
-1 20 -9 3 -9 10 -13 15 -9 5 3 12 1 16 -5 4 -6 11 -8 16 -5 5 4 9 1 9 -4 0
-6 9 -11 20 -11 11 0 20 -5 20 -12 0 -6 3 -9 6 -5 3 3 22 -3 42 -13 19 -11 39
-17 44 -14 4 3 8 1 8 -5 0 -8 22 -19 50 -26 10 -3 65 -30 70 -35 3 -3 10 -6
15 -7 10 -1 176 -76 204 -91 7 -4 15 -28 16 -52 2 -25 6 -58 10 -75 4 -16 7
-38 7 -47 -1 -10 3 -18 8 -18 4 0 7 -8 6 -18 -2 -9 0 -26 5 -37 19 -49 22 -61
20 -69 -1 -4 4 -14 10 -22 6 -8 8 -14 4 -14 -4 0 -2 -6 4 -13 6 -8 8 -17 4
-20 -3 -4 -1 -7 6 -7 6 0 11 -6 10 -12 -1 -7 4 -26 11 -43 7 -16 13 -33 12
-37 -1 -5 2 -8 8 -8 5 0 10 -9 10 -20 0 -11 4 -20 10 -20 5 0 7 -6 4 -13 -2
-7 3 -22 13 -32 18 -20 57 -96 53 -104 -1 -2 2 -7 7 -10 5 -3 27 -35 49 -71
21 -36 41 -67 44 -70 3 -3 19 -25 35 -49 17 -25 40 -56 53 -69 12 -14 22 -28
22 -32 0 -4 17 -26 38 -48 20 -23 45 -51 54 -63 10 -13 38 -44 63 -70 25 -26
45 -53 45 -60 0 -7 2 -10 5 -8 2 3 46 -36 98 -86 51 -49 120 -112 152 -140 32
-27 69 -60 82 -72 13 -13 28 -23 33 -23 4 0 10 -4 12 -8 3 -9 154 -128 186
-147 9 -5 22 -15 29 -22 25 -23 272 -183 282 -183 6 0 11 -4 11 -10 0 -5 6
-10 13 -10 14 0 170 -100 175 -112 2 -4 7 -8 12 -8 4 0 38 -18 75 -41 87 -52
130 -77 182 -104 23 -12 49 -28 58 -35 8 -7 15 -9 15 -4 0 5 7 1 14 -9 8 -10
16 -17 18 -16 5 5 122 -54 130 -66 4 -5 8 -6 8 -2 0 4 20 -4 45 -18 25 -14 52
-25 60 -25 8 0 15 -5 15 -10 0 -6 3 -9 8 -8 14 4 52 -13 52 -23 0 -6 4 -8 9
-5 5 3 28 -3 52 -13 24 -11 47 -19 50 -18 3 1 13 -4 22 -12 10 -7 17 -10 17
-6 0 4 10 1 23 -7 22 -15 67 -29 77 -25 3 1 18 -6 33 -16 15 -9 27 -15 27 -13
0 3 19 -2 43 -10 23 -9 51 -17 62 -19 11 -1 20 -3 20 -4 0 -2 8 -4 18 -6 10
-2 26 -7 35 -11 9 -3 28 -8 42 -10 45 -7 55 -9 65 -16 10 -6 41 -12 130 -24
22 -3 47 -8 55 -11 8 -3 31 -7 50 -8 19 -2 60 -6 90 -10 92 -11 344 -13 358
-2 8 6 12 6 12 -2 0 -8 6 -9 18 -4 9 5 38 8 64 8 27 0 48 3 48 6 0 3 6 6 13 6
14 0 95 11 117 16 8 1 21 6 28 10 6 5 12 6 12 3 0 -2 15 0 33 5 17 6 41 12 51
14 38 9 91 28 104 38 6 5 12 7 12 4 0 -6 55 16 130 51 19 9 38 15 43 14 4 -1
7 2 7 8 0 5 7 10 15 10 8 0 15 5 15 12 0 6 3 9 6 5 6 -5 143 81 170 107 6 6
33 29 60 51 92 75 247 238 273 288 8 15 20 27 28 27 7 0 12 3 11 8 -3 8 71
123 85 133 5 3 8 10 8 15 -1 5 5 16 13 26 8 9 12 19 9 22 -4 3 -1 6 5 6 7 0
12 9 12 20 0 11 4 20 8 20 6 0 50 77 57 100 1 3 15 32 31 65 15 33 29 62 29
65 0 3 6 15 13 26 6 12 9 24 6 26 -2 3 2 11 10 17 8 7 12 19 9 27 -3 8 -1 14
4 14 5 0 10 6 11 13 1 15 35 110 42 117 5 5 9 18 17 60 2 13 9 30 15 37 6 7 8
13 4 13 -3 0 3 22 13 49 10 28 16 52 13 55 -3 4 -1 6 4 6 5 0 10 8 11 18 2 31
9 50 22 66 10 12 11 16 1 16 -10 0 -10 3 0 15 7 8 9 15 5 15 -4 0 -2 7 5 15 7
8 9 15 6 15 -4 0 -1 10 6 22 6 13 12 32 13 43 1 11 7 40 15 65 7 25 14 47 15
50 16 78 31 130 37 130 5 0 6 11 4 25 -3 14 -2 25 2 25 4 0 8 10 9 23 2 23 10
62 13 62 2 0 8 25 16 65 9 51 12 65 14 68 2 1 3 5 4 10 3 10 28 124 31 142 2
8 4 16 5 18 2 1 4 11 5 22 1 11 3 21 5 23 3 3 10 39 12 65 1 12 6 22 10 22 4
0 5 6 2 14 -3 8 0 17 6 21 8 5 8 11 -1 21 -7 8 -7 14 -1 14 5 0 12 15 15 33 3
17 7 43 10 57 4 14 9 37 12 53 3 15 7 38 10 52 3 14 7 36 10 50 3 14 7 37 10
53 3 15 8 38 11 52 3 14 8 36 10 50 6 30 11 57 18 90 3 14 7 37 8 52 1 16 5
28 9 28 4 0 6 11 3 25 -2 14 -1 25 3 25 5 0 8 10 9 23 0 12 4 36 7 52 3 17 9
46 13 65 4 19 8 47 8 63 1 15 4 27 8 27 4 0 7 10 7 23 0 12 2 34 5 50 3 15 8
37 10 50 3 12 9 46 15 76 6 29 9 57 6 61 -3 5 0 12 6 15 5 4 8 13 5 21 -3 7
-1 16 5 19 5 4 7 10 5 14 -3 3 2 40 10 80 7 41 11 78 8 82 -3 5 -1 9 3 9 8 0
13 31 16 88 0 6 3 12 7 12 3 0 5 15 5 33 0 17 3 37 6 42 4 6 7 12 7 15 0 3 3
30 8 60 4 30 9 63 10 73 1 9 2 18 4 20 4 5 10 43 12 79 2 21 6 38 9 38 3 0 5
10 4 23 -1 12 0 26 3 32 3 5 7 21 8 35 1 14 5 43 9 65 5 22 8 55 9 73 0 17 4
32 7 32 4 0 8 12 8 28 0 24 7 67 11 67 1 0 3 18 6 40 2 22 6 54 9 70 2 17 6
50 10 75 3 25 8 52 11 60 3 8 8 33 9 55 2 22 6 53 9 69 9 47 19 119 20 141 1
11 4 25 7 30 4 6 7 24 7 40 1 41 5 59 17 67 6 5 5 8 -3 8 -9 0 -10 5 -4 18 5
9 8 27 7 40 -1 12 1 22 5 22 3 0 5 12 5 28 -1 15 1 31 4 37 3 5 6 21 7 35 2
14 6 43 9 65 4 22 8 54 10 70 4 34 11 82 21 140 3 22 7 54 8 71 2 16 5 34 7
40 3 5 7 29 8 54 2 25 5 48 7 52 2 3 7 28 9 55 3 26 8 59 10 73 5 23 16 130
18 158 0 6 3 12 7 12 3 0 6 15 7 33 1 49 13 148 21 182 4 17 7 45 7 63 -1 17
1 32 5 32 3 0 7 15 8 33 2 17 5 52 8 77 3 25 7 59 8 76 1 17 5 35 8 40 2 5 6
28 7 50 1 23 4 52 7 65 6 29 13 80 18 139 2 25 5 45 6 45 1 0 3 11 5 25 2 14
6 48 10 75 4 28 8 68 10 90 1 22 5 47 8 55 5 14 11 63 22 175 2 22 6 50 9 62
7 31 19 141 20 185 1 21 3 38 6 38 3 0 6 17 7 38 2 20 5 53 8 72 7 44 18 147
19 183 1 15 3 27 6 27 3 0 6 15 7 33 4 85 8 115 14 111 4 -2 6 4 5 13 -3 19
-26 31 -26 14 0 -6 -7 -11 -15 -11 -8 0 -15 -5 -15 -11 0 -5 -13 -15 -30 -20
-16 -6 -30 -15 -30 -20 0 -5 -7 -9 -15 -9 -7 0 -18 -8 -24 -17 -5 -10 -12 -17
-15 -16 -9 4 -76 -38 -76 -48 0 -4 -7 -5 -17 -2 -11 4 -14 3 -9 -5 4 -7 1 -12
-8 -12 -9 0 -16 -5 -16 -11 0 -5 -4 -8 -9 -5 -5 4 -11 2 -13 -2 -4 -12 -91
-67 -100 -64 -5 1 -8 -2 -8 -6 0 -5 -24 -24 -52 -42 -29 -19 -55 -38 -56 -42
-2 -5 -8 -6 -13 -2 -5 3 -9 1 -9 -3 0 -5 -22 -22 -50 -38 -27 -16 -50 -33 -50
-38 0 -4 -4 -5 -10 -2 -5 3 -10 3 -10 -2 0 -4 -23 -21 -50 -38 -27 -16 -50
-34 -50 -38 0 -5 -4 -5 -10 -2 -5 3 -10 2 -10 -2 0 -5 -16 -17 -35 -27 -19
-11 -35 -23 -35 -28 0 -4 -3 -7 -7 -6 -8 3 -53 -26 -83 -54 -10 -9 -21 -14
-24 -10 -3 3 -6 0 -6 -6 0 -7 -5 -12 -11 -12 -6 0 -28 -13 -48 -28 -20 -16
-44 -32 -53 -35 -10 -4 -18 -11 -18 -17 0 -6 -4 -9 -9 -6 -4 3 -16 -3 -26 -14
-10 -11 -24 -20 -32 -20 -7 0 -13 -4 -13 -8 0 -5 -12 -15 -27 -23 -16 -8 -30
-16 -33 -19 -21 -22 -79 -58 -84 -53 -3 4 -6 1 -6 -5 0 -7 -7 -12 -15 -12 -8
0 -15 -3 -15 -8 0 -4 -37 -32 -82 -62 -46 -30 -127 -85 -180 -122 -54 -38
-100 -68 -103 -68 -2 0 -16 -10 -31 -22 -14 -13 -28 -21 -31 -20 -3 2 -9 0
-12 -6 -8 -13 -142 -107 -163 -115 -10 -3 -18 -11 -18 -17 0 -5 -6 -10 -13
-10 -8 0 -25 -9 -38 -21 -13 -11 -36 -28 -51 -37 -16 -9 -28 -20 -28 -24 0 -4
-7 -8 -15 -8 -8 0 -15 -4 -15 -10 0 -5 -5 -10 -10 -10 -6 0 -16 -5 -23 -10 -7
-6 -61 -45 -122 -87 -60 -42 -113 -81 -117 -87 -4 -6 -8 -7 -8 -3 0 5 -27 -13
-60 -38 -33 -25 -60 -43 -60 -39 0 4 -8 -3 -19 -14 -10 -12 -23 -22 -30 -22
-6 0 -11 -4 -11 -9 0 -5 -8 -12 -18 -15 -10 -4 -27 -14 -38 -24 -10 -9 -39
-30 -64 -47 -51 -34 -109 -76 -193 -138 -20 -15 -37 -25 -37 -22 0 3 -10 -4
-22 -15 -13 -12 -47 -38 -75 -57 -29 -19 -53 -39 -53 -44 0 -5 -3 -8 -7 -7
-11 3 -93 -53 -93 -63 0 -5 -6 -9 -13 -9 -7 0 -22 -8 -33 -18 -10 -9 -45 -35
-76 -56 -32 -22 -58 -44 -58 -49 0 -6 -3 -8 -6 -4 -4 3 -12 1 -19 -6 -7 -7
-23 -19 -35 -27 -12 -8 -28 -20 -34 -25 -6 -6 -28 -21 -48 -35 -21 -14 -38
-28 -38 -32 0 -5 -6 -8 -13 -8 -7 0 -27 -13 -45 -30 -18 -16 -36 -30 -38 -30
-7 0 -78 -53 -86 -65 -4 -5 -8 -7 -8 -2 0 4 -8 -1 -18 -10 -10 -10 -29 -26
-42 -35 -96 -68 -446 -333 -448 -340 -2 -4 -8 -8 -13 -8 -11 0 -14 -2 -74 -55
-22 -19 -44 -35 -49 -35 -5 0 -16 -8 -25 -18 -9 -9 -33 -28 -53 -42 -21 -14
-38 -28 -38 -32 0 -5 -7 -8 -16 -8 -8 0 -12 -4 -9 -10 3 -5 0 -10 -7 -10 -7 0
-27 -14 -45 -30 -18 -17 -37 -30 -42 -30 -6 0 -11 -5 -11 -11 0 -5 -4 -8 -9
-4 -5 3 -12 -4 -16 -15 -3 -11 -10 -19 -14 -17 -4 1 -20 -7 -36 -18 -88 -63
-132 -96 -145 -107 -8 -7 -16 -12 -17 -10 -2 1 -11 -6 -21 -15 -11 -10 -28
-25 -38 -33 -11 -8 -47 -36 -81 -63 -66 -51 -83 -56 -107 -31 -9 8 -16 12 -16
8 0 -3 -7 0 -17 7 -9 8 -19 13 -22 13 -3 -1 -17 3 -31 9 -14 6 -27 11 -30 12
-3 1 -14 5 -25 9 -79 29 -99 35 -106 30 -5 -3 -9 -1 -9 4 0 8 -54 24 -80 24
-3 0 -12 4 -20 8 -8 4 -32 11 -52 14 -21 3 -57 10 -80 15 -24 5 -50 9 -58 9
-8 0 -26 3 -40 7 -76 18 -562 30 -592 14 -13 -7 -18 -6 -18 3 0 8 -3 9 -8 3
-4 -5 -23 -11 -42 -11 -43 -2 -139 -13 -199 -24 -25 -4 -50 -6 -58 -3 -7 3
-13 1 -13 -4 0 -5 -12 -10 -27 -11 -35 -2 -78 -9 -78 -12 0 -1 -11 -3 -25 -4
-14 -1 -30 -5 -37 -9 -6 -4 -14 -3 -18 3 -3 5 -3 10 0 10 4 0 0 7 -9 15 -8 9
-13 22 -10 30 4 8 2 15 -3 15 -5 0 -10 6 -10 13 0 6 -7 35 -16 64 -8 28 -12
55 -9 59 4 4 1 4 -5 0 -10 -5 -13 3 -13 28 0 20 -4 36 -8 36 -5 0 -8 10 -7 23
1 12 0 27 -4 32 -3 6 -6 17 -6 25 0 8 -3 20 -6 25 -4 6 -10 33 -14 60 -8 51
-9 55 -20 115 -4 19 -9 44 -11 56 -2 11 -6 40 -8 65 -3 24 -6 44 -7 44 -2 0
-7 50 -11 108 -1 26 -5 47 -8 47 -3 0 -5 33 -5 73 1 39 -3 82 -6 93 -4 12 -3
26 4 33 7 7 7 11 1 11 -7 0 -10 76 -10 225 1 124 3 225 6 225 3 0 6 35 7 78 1
42 5 97 8 122 3 25 8 61 10 80 5 45 12 103 21 160 3 25 6 51 7 58 0 6 3 12 7
12 4 0 6 10 5 23 -1 12 2 30 7 40 6 12 5 17 -4 17 -9 0 -9 3 0 12 7 7 12 22
12 33 0 12 3 25 7 29 4 4 8 15 8 24 1 40 29 162 37 162 5 0 7 4 4 9 -3 5 0 29
8 54 8 25 11 48 8 51 -3 4 0 6 6 6 6 0 9 9 7 20 -2 11 1 20 7 20 6 0 9 3 5 6
-3 4 0 21 7 38 7 17 11 37 9 44 -3 6 0 12 6 12 6 0 11 9 11 19 0 16 33 120 57
181 4 8 7 18 8 23 2 4 4 9 5 12 1 3 4 10 5 15 1 6 4 12 5 15 1 3 3 8 5 13 1 4
4 14 8 22 3 8 7 21 9 28 2 7 16 -11 32 -40 16 -29 45 -70 65 -91 34 -36 167
-127 186 -127 5 0 36 -11 71 -25 34 -14 73 -27 85 -29 13 -3 24 -5 24 -6 0 -2
49 -12 130 -26 17 -3 44 -9 61 -13 17 -5 38 -5 45 0 7 4 19 3 26 -2 6 -6 46
-11 87 -12 43 -1 76 -6 76 -12 0 -7 3 -7 8 0 9 12 32 18 32 7 0 -10 321 -9
338 1 7 5 12 3 12 -4 0 -8 4 -8 15 1 12 10 15 10 15 0 0 -8 6 -10 18 -5 9 4
53 9 96 11 44 2 81 6 84 9 3 3 12 -1 20 -8 10 -7 13 -7 9 -1 -4 8 10 12 46 13
28 2 59 3 67 3 8 1 18 6 22 12 5 7 8 7 8 -2 0 -8 5 -10 12 -6 7 4 28 9 48 10
19 2 53 5 75 9 22 3 58 7 80 9 22 2 40 5 40 6 0 1 10 3 23 6 28 5 81 31 105
52 9 8 17 12 17 8 0 -14 83 80 100 115 30 58 42 157 27 229 -2 14 -8 44 -12
67 -4 24 -11 45 -16 49 -5 3 -9 15 -9 27 0 13 -8 33 -17 46 -12 18 -13 22 -2
17 8 -4 5 0 -5 8 -11 9 -17 16 -13 16 8 0 -44 102 -56 111 -5 3 -9 10 -9 15
-1 22 -32 73 -41 67 -6 -3 -7 -1 -3 5 3 6 -1 17 -9 25 -8 9 -15 20 -15 25 0 5
-11 22 -25 38 -14 16 -25 32 -25 35 0 3 -8 15 -17 27 -10 11 -25 30 -33 43 -8
12 -30 40 -49 61 -18 21 -30 38 -26 38 5 0 -2 8 -13 19 -12 10 -22 24 -22 30
0 7 -4 10 -8 7 -5 -3 -15 6 -22 19 -7 14 -17 25 -22 25 -5 0 -6 5 -3 10 3 6
-1 10 -9 10 -9 0 -16 4 -16 8 0 19 -99 111 -142 131 -27 13 -48 27 -48 32 0 4
-7 6 -15 3 -8 -4 -15 -1 -15 5 0 6 -3 10 -7 9 -5 -1 -26 6 -48 16 -22 10 -67
27 -100 37 -33 11 -67 23 -75 26 -21 8 -51 15 -75 17 -11 0 -22 4 -25 8 -3 4
-20 8 -38 10 -18 1 -32 5 -32 9 0 4 -13 6 -30 5 -16 -1 -30 1 -30 5 0 4 -9 6
-20 4 -11 -2 -20 -1 -20 3 0 4 -12 7 -27 8 -64 2 -162 12 -172 18 -5 4 -13 2
-16 -4 -4 -7 -11 -8 -18 -2 -7 5 -46 10 -87 11 -41 1 -94 3 -118 5 -23 1 -43
1 -45 0z"/>
</g>
</svg>
